HIERARCHY
ROOT Hips
{
    OFFSET 0.000000 0.000000 0.000000
    CHANNELS 6 Xposition Yposition Zposition Zrotation Xrotation Yrotation
    JOINT Spine
    {
        OFFSET -0.000000 7.236184 0.000000
        CHANNELS 3 Zrotation Xrotation Yrotation
        JOINT Spine1
        {
            OFFSET -0.000000 20.420147 0.000000
            CHANNELS 3 Zrotation Xrotation Yrotation
            JOINT Neck
            {
                OFFSET -0.000000 20.336288 1.848754
                CHANNELS 3 Zrotation Xrotation Yrotation
                JOINT Head
                {
                    OFFSET -0.000000 12.354461 -1.764923
                    CHANNELS 3 Zrotation Xrotation Yrotation
                    End Site
                    {
                        OFFSET -0.000000 22.061537 0.000000
                    }
                }
            }
            JOINT LeftShoulder
            {
                OFFSET 3.573296 18.396038 -0.314103
                CHANNELS 3 Zrotation Xrotation Yrotation
                JOINT LeftArm
                {
                    OFFSET 10.880760 0.000000 0.000000
                    CHANNELS 3 Zrotation Xrotation Yrotation
                    JOINT LeftForeArm
                    {
                        OFFSET 27.185530 0.000000 0.000000
                        CHANNELS 3 Zrotation Xrotation Yrotation
                        JOINT LeftHand
                        {
                            OFFSET 27.825975 0.000000 0.000000
                            CHANNELS 3 Zrotation Xrotation Yrotation
                            End Site
                            {
                                OFFSET 13.236923 0.000000 0.000000
                            }
                        }
                    }
                }
            }
            JOINT RightShoulder
            {
                OFFSET -3.474926 18.396038 -0.314103
                CHANNELS 3 Zrotation Xrotation Yrotation
                JOINT RightArm
                {
                    OFFSET -10.880760 0.000000 0.000000
                    CHANNELS 3 Zrotation Xrotation Yrotation
                    JOINT RightForeArm
                    {
                        OFFSET -27.185530 0.000000 0.000000
                        CHANNELS 3 Zrotation Xrotation Yrotation
                        JOINT RightHand
                        {
                            OFFSET -27.825975 0.000000 0.000000
                            CHANNELS 3 Zrotation Xrotation Yrotation
                            End Site
                            {
                                OFFSET -13.236923 0.000000 0.000000
                            }
                        }
                    }
                }
            }
        }
    }
    JOINT LeftUpLeg
    {
        OFFSET 8.824615 0.000000 0.000000
        CHANNELS 3 Zrotation Xrotation Yrotation
        JOINT LeftLeg
        {
            OFFSET -0.000000 -35.111282 0.000000
            CHANNELS 3 Zrotation Xrotation Yrotation
            JOINT LeftFoot
            {
                OFFSET -0.000000 -42.324711 0.000000
                CHANNELS 3 Zrotation Xrotation Yrotation
                JOINT LeftToeBase
                {
                    OFFSET -0.000000 -5.735999 13.236923
                    CHANNELS 3 Zrotation Xrotation Yrotation
                    End Site
                    {
                        OFFSET -0.000000 0.000000 3.529846
                    }
                }
            }
        }
    }
    JOINT RightUpLeg
    {
        OFFSET -8.824615 0.000000 0.000000
        CHANNELS 3 Zrotation Xrotation Yrotation
        JOINT RightLeg
        {
            OFFSET -0.000000 -35.111282 0.000000
            CHANNELS 3 Zrotation Xrotation Yrotation
            JOINT RightFoot
            {
                OFFSET -0.000000 -42.324711 0.000000
                CHANNELS 3 Zrotation Xrotation Yrotation
                JOINT RightToeBase
                {
                    OFFSET -0.000000 -5.735999 13.236923
                    CHANNELS 3 Zrotation Xrotation Yrotation
                    End Site
                    {
                        OFFSET -0.000000 0.000000 3.529846
                    }
                }
            }
        }
    }
}
MOTION
Frames:    10
Frame Time:    0.008333
-16.579638    81.284676    101.977707    -3.315065    -3.657515    158.416626    -1.562078    -12.877663    1.732920    0.126984    7.650793    1.900746    4.235020    9.202658    2.753377    1.119581    -3.774408    2.782766    -0.640889    18.412039    -2.210987    -49.116795    43.327457    -36.959961    2.020509    -6.178163    -17.998720    17.568642    -5.513146    2.254736    4.436021    18.917389    -1.571223    39.684753    49.899071    38.886028    -1.891122    -8.282547    17.489771    -13.620280    -7.508043    -4.109702    4.852418    -9.450905    1.049623    -1.149192    14.261610    0.144867    -5.981655    -6.551606    -6.994939    0.514139    -0.832468    -0.570766    -6.794418    -0.550950    -2.303441    4.612590    4.819106    -2.662564    -1.396932    -6.170332    -18.069412    -1.475839    -0.560547    1.597454    
-16.631487    81.281898    101.966621    -3.318573    -3.668387    158.600235    -1.566487    -12.843027    1.761738    0.095055    7.626227    1.931743    4.254241    9.212037    2.704636    1.183222    -3.779129    2.742304    -0.645982    18.427794    -2.160305    -49.258114    43.221832    -36.871449    2.110564    -6.285171    -17.945433    17.442387    -5.615085    2.218881    4.447826    18.960302    -1.588895    39.682751    49.930962    38.840767    -1.913695    -8.319068    17.461073    -13.616094    -7.546205    -4.072691    4.783351    -9.576304    0.960388    -1.123718    14.392267    0.100680    -5.909774    -6.588686    -7.060117    0.470572    -0.874481    -0.522442    -6.828356    -0.522542    -2.378522    4.605451    4.802214    -2.770621    -1.349345    -6.169717    -18.054459    -1.468059    -0.555131    1.589021    
-16.683245    81.279099    101.955414    -3.322263    -3.679578    158.780029    -1.570801    -12.809990    1.790470    0.064060    7.602950    1.962573    4.273226    9.220847    2.656775    1.245703    -3.783605    2.702593    -0.651521    18.442692    -2.110395    -49.398071    43.116047    -36.780548    2.198876    -6.391359    -17.896502    17.319530    -5.716058    2.184893    4.458709    19.003380    -1.605869    39.682972    49.959854    38.795158    -1.936986    -8.357446    17.432941    -13.609770    -7.585680    -4.040053    4.714267    -9.699847    0.874124    -1.097946    14.521187    0.055234    -5.837454    -6.625629    -7.124143    0.425629    -0.916977    -0.472581    -6.862983    -0.494663    -2.449578    4.599977    4.785542    -2.868607    -1.303823    -6.169315    -18.050291    -1.460497    -0.549401    1.580823    
-16.734877    81.276253    101.943947    -3.326162    -3.691093    158.952911    -1.574979    -12.779459    1.819066    0.034671    7.581877    1.993141    4.291247    9.228906    2.610507    1.306921    -3.788284    2.664313    -0.656774    18.455675    -2.062139    -49.538952    43.010555    -36.684258    2.283789    -6.495591    -17.852930    17.204412    -5.815283    2.151401    4.467830    19.046846    -1.621689    39.689907    49.981186    38.747635    -1.962128    -8.398293    17.404646    -13.599189    -7.626729    -4.014052    4.645797    -9.820145    0.793499    -1.072138    14.647189    0.006937    -5.764300    -6.662420    -7.185413    0.378666    -0.960214    -0.420471    -6.898742    -0.467651    -2.513421    4.597117    4.769184    -2.950790    -1.261509    -6.169271    -18.063095    -1.453548    -0.543613    1.573290    
-16.788597    81.273285    101.931473    -3.330341    -3.703315    159.123871    -1.579282    -12.750878    1.848671    0.006512    7.562981    2.024695    4.307866    9.235131    2.564190    1.370286    -3.791865    2.626430    -0.661599    18.466230    -2.014250    -49.688984    42.900833    -36.575439    2.367297    -6.601677    -17.813618    17.094728    -5.916623    2.116326    4.474824    19.093283    -1.636719    39.708614    49.990250    38.694305    -1.990610    -8.443318    17.373686    -13.582290    -7.671185    -3.992617    4.575379    -9.940978    0.716714    -1.045218    14.774624    -0.046949    -5.687756    -6.700929    -7.245090    0.327940    -1.004996    -0.364175    -6.937115    -0.440483    -2.571843    4.596653    4.752236    -3.020153    -1.220521    -6.169407    -18.092508    -1.446867    -0.537517    1.566044    
-16.842773    81.270340    101.918152    -3.334394    -3.715484    159.285721    -1.583438    -12.725258    1.878398    -0.019028    7.547374    2.056254    4.322231    9.239753    2.519580    1.433315    -3.795266    2.590371    -0.665627    18.473289    -1.968671    -49.845001    42.790375    -36.455227    2.445374    -6.706266    -17.780071    16.994705    -6.017091    2.080578    4.478851    19.142130    -1.650758    39.743355    49.981697    38.635262    -2.022371    -8.491528    17.339386    -13.558294    -7.718394    -3.973423    4.505515    -10.057045    0.646832    -1.018175    14.898603    -0.104816    -5.611861    -6.740595    -7.299342    0.277313    -1.048757    -0.307978    -6.976565    -0.413859    -2.623321    4.597861    4.735021    -3.078032    -1.181091    -6.169376    -18.131870    -1.440625    -0.531153    1.559276    
-16.898289    81.267448    101.903473    -3.337995    -3.727340    159.440002    -1.587336    -12.702044    1.908843    -0.042011    7.535166    2.088304    4.333539    9.241988    2.475990    1.498231    -3.797695    2.555763    -0.669047    18.476778    -1.924102    -50.009537    42.677235    -36.321278    2.517905    -6.811119    -17.751324    16.901949    -6.118594    2.043774    4.479632    19.195175    -1.664432    39.798244    49.951351    38.568142    -2.058773    -8.544119    17.300261    -13.525732    -7.769748    -3.953660    4.435550    -10.168932    0.582396    -0.991070    15.020486    -0.166764    -5.537764    -6.782876    -7.347213    0.229000    -1.089374    -0.254342    -7.017537    -0.387099    -2.668783    4.600531    4.717146    -3.130233    -1.141748    -6.168900    -18.175779    -1.434749    -0.524783    1.552901    
-16.952360    81.264832    101.888107    -3.340785    -3.737908    159.578629    -1.590700    -12.681973    1.938540    -0.061221    7.526830    2.119357    4.340840    9.241709    2.435463    1.562210    -3.799170    2.524315    -0.671875    18.476690    -1.882328    -50.173836    42.566849    -36.180809    2.580207    -6.911201    -17.727512    16.819656    -6.216517    2.007455    4.476978    19.250406    -1.677902    39.872524    49.898685    38.495865    -2.098537    -8.599020    17.257870    -13.485899    -7.823230    -3.934112    4.369143    -10.270433    0.525734    -0.965626    15.133922    -0.228515    -5.470847    -6.825999    -7.385335    0.187567    -1.123129    -0.208337    -7.058033    -0.361625    -2.706216    4.604509    4.699986    -3.178062    -1.103917    -6.168041    -18.217524    -1.429504    -0.518546    1.547212    
-17.013731    81.262131    101.869377    -3.343092    -3.748596    159.722961    -1.593796    -12.661568    1.972401    -0.079973    7.520995    2.154482    4.345146    9.238720    2.391528    1.635691    -3.800066    2.491098    -0.674610    18.473207    -1.835867    -50.363728    42.440807    -36.011913    2.640888    -7.022738    -17.703074    16.734360    -6.326996    1.965703    4.470376    19.316954    -1.694013    39.981537    49.812908    38.405483    -2.149382    -8.666459    17.204870    -13.431756    -7.888530    -3.912625    4.295704    -10.376936    0.467238    -0.938061    15.256567    -0.298778    -5.401285    -6.876979    -7.419144    0.147610    -1.154784    -0.163965    -7.104801    -0.333635    -2.741753    4.610636    4.681653    -3.230296    -1.061232    -6.166951    -18.261940    -1.424425    -0.511594    1.541699    
-17.074806    81.259766    101.849380    -3.344615    -3.757729    159.852264    -1.596043    -12.643438    2.006311    -0.095796    7.518524    2.189471    4.345052    9.232628    2.349971    1.710311    -3.799720    2.460676    -0.677122    18.466633    -1.789778    -50.555004    42.314190    -35.835434    2.689229    -7.132001    -17.678583    16.658596    -6.437088    1.922726    4.460037    19.386232    -1.711399    40.119637    49.699802    38.304096    -2.207308    -8.739925    17.147057    -13.368657    -7.959117    -3.892317    4.224762    -10.473445    0.414179    -0.912625    15.371792    -0.366796    -5.338666    -6.929318    -7.443089    0.115533    -1.179664    -0.128340    -7.152083    -0.307660    -2.771444    4.617669    4.665987    -3.281090    -1.018294    -6.166083    -18.300066    -1.420225    -0.504738    1.537139    
